<?xml version="1.0" ?>
<!DOCTYPE svg  PUBLIC '-//W3C//DTD SVG 1.1//EN'  'http://www.w3.org/Graphics/SVG/1.1/DTD/svg11.dtd'>
<!-- Uploaded to: SVG Repo, www.svgrepo.com, Generator: SVG Repo Mixer Tools -->
<svg width="800px" height="800px" viewBox="0 0 6.82666 6.82666" style="shape-rendering:geometricPrecision; text-rendering:geometricPrecision; image-rendering:optimizeQuality; fill-rule:evenodd; clip-rule:evenodd" xml:space="preserve" xmlns="http://www.w3.org/2000/svg" xmlns:xlink="http://www.w3.org/1999/xlink">
<defs>
<style type="text/css">
   <![CDATA[
    .str0 {stroke:#373435;stroke-width:0.00694488;stroke-linecap:round;stroke-linejoin:round}
    .fil4 {fill:none}
    .fil1 {fill:#9CCC65}
    .fil2 {fill:#C3AE7E}
    .fil3 {fill:#EDEAE3}
    .fil0 {fill:black;fill-rule:nonzero}
   ]]>
  </style>
</defs>
<g id="Layer_x0020_1">
<g id="_411836824">
<path class="fil0" d="M4.53369 3.55406c-0.0294528,0 -0.0533346,0.0238819 -0.0533346,0.0533346 0,0.0294528 0.0238819,0.0533346 0.0533346,0.0533346l1.12719 0 0 2.03319 -4.49509 0 0 -2.03319 1.12719 0c0.0294528,0 0.0533346,-0.0238819 0.0533346,-0.0533346 0,-0.0294528 -0.0238819,-0.0533346 -0.0533346,-0.0533346l-1.18052 0c-0.0294528,0 -0.0533346,0.0238819 -0.0533346,0.0533346l0 2.13986c0,0.0294528 0.0238819,0.0533346 0.0533346,0.0533346l4.60176 0c0.0294528,0 0.0533346,-0.0238819 0.0533346,-0.0533346l0 -2.13986c0,-0.0294528 -0.0238819,-0.0533346 -0.0533346,-0.0533346l-1.18053 0z" id="_411837976"/>
<path class="fil0" d="M2.23964 5.74726c0,0.0294528 0.0238819,0.0533346 0.0533346,0.0533346 0.0294528,0 0.0533346,-0.0238819 0.0533346,-0.0533346l0 -2.63503c0,-0.0294528 -0.0238819,-0.0533346 -0.0533346,-0.0533346 -0.00159055,0 -0.00316142,7.87402e-005 -0.00471654,0.000212598l-0.506776 0.000279528 1.63185 -1.06033 1.63185 1.06033 -0.511472 -0.000279528 0 -0.000204724c-0.0294528,-1.1811e-005 -0.0533465,0.0238504 -0.0533583,0.0533031l0 2.75591e-005 -3.93701e-006 0 0 2.63502c0,0.0294528 0.0238819,0.0533346 0.0533346,0.0533346 0.0294528,0 0.0533346,-0.0238819 0.0533346,-0.0533346l0 -2.58187 0.632866 0.000346457c0.0190394,0.00169685 0.0383622,-0.00692126 0.0495,-0.024063 0.0160472,-0.0246969 0.00903543,-0.0577323 -0.0156614,-0.0737795l-0.0290591 0.0447205 0.0289567 -0.0445827 -1.80763 -1.17455c-0.0174331,-0.0135 -0.042185,-0.0152362 -0.0617165,-0.00254331l9.44882e-005 0.000141732 -1.80767 1.17458c-0.0166969,0.00901575 -0.0280354,0.0266772 -0.0280276,0.0469843 1.1811e-005,0.0294528 0.0239055,0.053315 0.0533583,0.0533031l0 -0.000204724 0.637614 -0.000354331 0 2.58187z" id="_411838360"/>
<g>
<path class="fil0" d="M3.46667 1.0794c0,-0.0294528 -0.0238819,-0.0533346 -0.0533346,-0.0533346 -0.0294528,0 -0.0533346,0.0238819 -0.0533346,0.0533346l0 0.856256c0,0.0294528 0.0238819,0.0533346 0.0533346,0.0533346 0.0294528,0 0.0533346,-0.0238819 0.0533346,-0.0533346l0 -0.856256z" id="_411839320"/>
<path class="fil0" d="M3.4331 1.03003c-0.0272677,-0.0109291 -0.0582362,0.00231496 -0.0691654,0.0295827 -0.0109291,0.0272677 0.00231496,0.0582362 0.0295827,0.0691654l0.366118 0.146449 -0.366118 0.146445c-0.0272677,0.0109291 -0.0405118,0.0418976 -0.0295827,0.0691654 0.0109291,0.0272677 0.0418976,0.0405118 0.0691654,0.0295827l0.485902 -0.194358c0.0146693,-0.00466929 0.0272165,-0.0156181 0.033378,-0.0310276 0.010937,-0.0273465 -0.00236614,-0.0583898 -0.0297126,-0.0693268l-5.11811e-005 0.000129921 -0.489516 -0.195807z" id="_411837256"/>
</g>
<path class="fil0" d="M2.29297 3.05743c-0.0294528,0 -0.0533346,0.0238819 -0.0533346,0.0533346 0,0.0294528 0.0238819,0.0533346 0.0533346,0.0533346l2.24072 0c0.0294528,0 0.0533346,-0.0238819 0.0533346,-0.0533346 0,-0.0294528 -0.0238819,-0.0533346 -0.0533346,-0.0533346l-2.24072 0z" id="_411838744"/>
<path class="fil0" d="M2.67189 3.11076c0,-0.0294528 -0.0238819,-0.0533346 -0.0533346,-0.0533346 -0.0294528,0 -0.0533346,0.0238819 -0.0533346,0.0533346l0 2.6365c0,0.0294528 0.0238819,0.0533346 0.0533346,0.0533346 0.0294528,0 0.0533346,-0.0238819 0.0533346,-0.0533346l0 -2.6365z" id="_411835288"/>
<path class="fil0" d="M4.26143 3.11076c0,-0.0294528 -0.0238819,-0.0533346 -0.0533346,-0.0533346 -0.0294528,0 -0.0533346,0.0238819 -0.0533346,0.0533346l0 2.6365c0,0.0294528 0.0238819,0.0533346 0.0533346,0.0533346 0.0294528,0 0.0533346,-0.0238819 0.0533346,-0.0533346l0 -2.6365z" id="_411836224"/>
<path class="fil0" d="M2.92378 3.93625l0.979102 0c0.0294528,0 0.0533346,0.0238819 0.0533346,0.0533346l0 1.75767c0,0.0294528 -0.0238819,0.0533346 -0.0533346,0.0533346l-0.979102 0c-0.0294528,0 -0.0533346,-0.0238819 -0.0533346,-0.0533346l0 -1.75767c0,-0.0294528 0.0238819,-0.0533346 0.0533346,-0.0533346zm0.925768 0.106669l-0.872433 0 0 1.651 0.872433 0 0 -1.651z" id="_411837112"/>
<path class="fil0" d="M2.23964 3.44695l-1.22609 0c-0.0146693,0 -0.0280512,0.00604331 -0.0377795,0.0157717 -0.00972835,0.00972835 -0.0157717,0.0231102 -0.0157717,0.0377795l0 7.87402e-006c0,0.0146693 0.00604331,0.0280512 0.0157717,0.0377795 0.00972835,0.00972835 0.0231102,0.0157717 0.0377795,0.0157717l1.22609 0 0 -0.10711zm-1.22609 -0.106669l1.27943 0c0.0294528,0 0.0533346,0.0238819 0.0533346,0.0533346l0 0.21378c0,0.0294528 -0.0238819,0.0533346 -0.0533346,0.0533346l-1.27943 0c-0.0441142,0 -0.084189,-0.0180118 -0.113197,-0.0470236 -0.0290118,-0.0290118 -0.0470236,-0.0690827 -0.0470236,-0.113197l0 -7.87402e-006c0,-0.0441142 0.0180118,-0.084185 0.0470236,-0.113197 0.0290079,-0.0290118 0.0690827,-0.0470236 0.113197,-0.0470236z" id="_411841888"/>
<path class="fil0" d="M4.53369 3.34028l1.27942 0c0.0441181,0 0.084189,0.0180118 0.113201,0.0470236 0.0290118,0.0290079 0.0470236,0.0690827 0.0470236,0.113197l0 7.87402e-006c0,0.0441142 -0.0180118,0.084189 -0.0470236,0.113197 -0.0290118,0.0290118 -0.0690827,0.0470236 -0.113201,0.0470236l-1.27942 0c-0.0294528,0 -0.0533346,-0.0238819 -0.0533346,-0.0533346l0 -0.21378c0,-0.0294528 0.0238819,-0.0533346 0.0533346,-0.0533346zm1.27942 0.106669l-1.22609 0 0 0.10711 1.22609 0c0.0146732,0 0.0280551,-0.00604331 0.0377835,-0.0157717 0.00972835,-0.00972835 0.0157717,-0.0231102 0.0157717,-0.0377795l0 -7.87402e-006c0,-0.0146693 -0.00604331,-0.0280512 -0.0157717,-0.0377795 -0.00972835,-0.00972835 -0.0231102,-0.0157717 -0.0377835,-0.0157717z" id="_411840232"/>
<path class="fil0" d="M2.97711 3.60826l0.872433 0 0 -0.222894 -0.872433 0 0 0.222894zm0.925768 0.106669l-0.979102 0c-0.0294528,0 -0.0533346,-0.0238819 -0.0533346,-0.0533346l0 -0.329563c0,-0.0294528 0.0238819,-0.0533346 0.0533346,-0.0533346l0.979102 0c0.0294528,0 0.0533346,0.0238819 0.0533346,0.0533346l0 0.329563c0,0.0294528 -0.0238819,0.0533346 -0.0533346,0.0533346z" id="_411841744"/>
<path class="fil0" d="M2.70836 2.82054l1.40994 0 -0.704972 -0.458071 -0.704972 0.458071zm1.58959 0.106669l-1.76887 0 -0.000377953 0c-0.017437,-1.1811e-005 -0.0345157,-0.00856693 -0.0447205,-0.0242756 -0.0160472,-0.0246969 -0.00903543,-0.0577323 0.0156614,-0.0737795l0.0290591 0.0447205 -0.0289567 -0.0445827 0.880921 -0.572398c0.0174331,-0.0135 0.042185,-0.0152362 0.0617165,-0.00254331l-9.44882e-005 0.000141732 0.880933 0.572409c0.0167047,0.00901181 0.0280591,0.0266654 0.0280591,0.0469724 0,0.0294528 -0.0238819,0.0533346 -0.0533346,0.0533346z" id="_411839944"/>
<g>
<path class="fil0" d="M1.36049 3.92068l0.684441 0c0.0294528,0 0.0533346,0.0238819 0.0533346,0.0533346l0 0.278929c0,0.0294528 -0.0238819,0.0533346 -0.0533346,0.0533346l-0.684441 0c-0.0294528,0 -0.0533346,-0.0238819 -0.0533346,-0.0533346l0 -0.278929c0,-0.0294528 0.0238819,-0.0533346 0.0533346,-0.0533346zm0.631106 0.106669l-0.577772 0 0 0.17226 0.577772 0 0 -0.17226z" id="_411838912"/>
<path class="fil0" d="M1.36049 4.48453l0.684441 0c0.0294528,0 0.0533346,0.0238819 0.0533346,0.0533346l0 0.278929c0,0.0294528 -0.0238819,0.0533346 -0.0533346,0.0533346l-0.684441 0c-0.0294528,0 -0.0533346,-0.0238819 -0.0533346,-0.0533346l0 -0.278929c0,-0.0294528 0.0238819,-0.0533346 0.0533346,-0.0533346zm0.631106 0.106669l-0.577772 0 0 0.17226 0.577772 0 0 -0.17226z" id="_411842704"/>
<path class="fil0" d="M1.36049 5.04837l0.684441 0c0.0294528,0 0.0533346,0.0238819 0.0533346,0.0533346l0 0.278925c0,0.0294528 -0.0238819,0.0533346 -0.0533346,0.0533346l-0.684441 0c-0.0294528,0 -0.0533346,-0.0238819 -0.0533346,-0.0533346l0 -0.278925c0,-0.0294528 0.0238819,-0.0533346 0.0533346,-0.0533346zm0.631106 0.106669l-0.577772 0 0 0.172256 0.577772 0 0 -0.172256z" id="_411840784"/>
</g>
<g>
<path class="fil0" d="M4.78173 3.92068l0.684441 0c0.0294528,0 0.0533346,0.0238819 0.0533346,0.0533346l0 0.278929c0,0.0294528 -0.0238819,0.0533346 -0.0533346,0.0533346l-0.684441 0c-0.0294528,0 -0.0533346,-0.0238819 -0.0533346,-0.0533346l0 -0.278929c0,-0.0294528 0.0238819,-0.0533346 0.0533346,-0.0533346zm0.631106 0.106669l-0.577772 0 0 0.17226 0.577772 0 0 -0.17226z" id="_411841624"/>
<path class="fil0" d="M4.78173 4.48453l0.684441 0c0.0294528,0 0.0533346,0.0238819 0.0533346,0.0533346l0 0.278929c0,0.0294528 -0.0238819,0.0533346 -0.0533346,0.0533346l-0.684441 0c-0.0294528,0 -0.0533346,-0.0238819 -0.0533346,-0.0533346l0 -0.278929c0,-0.0294528 0.0238819,-0.0533346 0.0533346,-0.0533346zm0.631106 0.106669l-0.577772 0 0 0.17226 0.577772 0 0 -0.17226z" id="_411839656"/>
<path class="fil0" d="M4.78173 5.04837l0.684441 0c0.0294528,0 0.0533346,0.0238819 0.0533346,0.0533346l0 0.278925c0,0.0294528 -0.0238819,0.0533346 -0.0533346,0.0533346l-0.684441 0c-0.0294528,0 -0.0533346,-0.0238819 -0.0533346,-0.0533346l0 -0.278925c0,-0.0294528 0.0238819,-0.0533346 0.0533346,-0.0533346zm0.631106 0.106669l-0.577772 0 0 0.172256 0.577772 0 0 -0.172256z" id="_411835192"/>
</g>
</g>
<polygon class="fil1 str0" points="3.46667,1.39241 3.75964,1.27522 3.46667,1.15804 "/>
<path class="fil2 str0" d="M3.90288 3.71493l-0.979102 0c-0.0294528,0 -0.0533346,-0.0238819 -0.0533346,-0.0533346l0 -0.329563c0,-0.0294528 0.0238819,-0.0533346 0.0533346,-0.0533346l0.979102 0c0.0294528,0 0.0533346,0.0238819 0.0533346,0.0533346l0 0.329563c0,0.0294528 -0.0238819,0.0533346 -0.0533346,0.0533346zm0.0533346 0.274654l0 1.70433 0.198547 0 0 -2.52983 -1.48287 0 0 2.52983 0.198551 0 0 -1.70433c0,-0.0294528 0.0238819,-0.0533346 0.0533346,-0.0533346l0.979102 0c0.0294528,0 0.0533346,0.0238819 0.0533346,0.0533346z"/>
<path class="fil2 str0" d="M4.78173 3.92068l0.684441 0c0.0294528,0 0.0533346,0.0238819 0.0533346,0.0533346l0 0.278929c0,0.0294528 -0.0238819,0.0533346 -0.0533346,0.0533346l-0.684441 0c-0.0294528,0 -0.0533346,-0.0238819 -0.0533346,-0.0533346l0 -0.278929c0,-0.0294528 0.0238819,-0.0533346 0.0533346,-0.0533346zm-0.194709 -0.259949l0 2.03319 1.07386 0 0 -2.03319 -1.07386 0zm0.194709 0.823795l0.684441 0c0.0294528,0 0.0533346,0.0238819 0.0533346,0.0533346l0 0.278929c0,0.0294528 -0.0238819,0.0533346 -0.0533346,0.0533346l-0.684441 0c-0.0294528,0 -0.0533346,-0.0238819 -0.0533346,-0.0533346l0 -0.278929c0,-0.0294528 0.0238819,-0.0533346 0.0533346,-0.0533346zm0 0.563846l0.684441 0c0.0294528,0 0.0533346,0.0238819 0.0533346,0.0533346l0 0.278925c0,0.0294528 -0.0238819,0.0533346 -0.0533346,0.0533346l-0.684441 0c-0.0294528,0 -0.0533346,-0.0238819 -0.0533346,-0.0533346l0 -0.278925c0,-0.0294528 0.0238819,-0.0533346 0.0533346,-0.0533346z"/>
<path class="fil2 str0" d="M2.23964 5.69392l0 -2.03319 -1.07385 0 0 2.03319 1.07385 0zm-0.87915 -1.77324l0.684441 0c0.0294528,0 0.0533346,0.0238819 0.0533346,0.0533346l0 0.278929c0,0.0294528 -0.0238819,0.0533346 -0.0533346,0.0533346l-0.684441 0c-0.0294528,0 -0.0533346,-0.0238819 -0.0533346,-0.0533346l0 -0.278929c0,-0.0294528 0.0238819,-0.0533346 0.0533346,-0.0533346zm0 0.563846l0.684441 0c0.0294528,0 0.0533346,0.0238819 0.0533346,0.0533346l0 0.278929c0,0.0294528 -0.0238819,0.0533346 -0.0533346,0.0533346l-0.684441 0c-0.0294528,0 -0.0533346,-0.0238819 -0.0533346,-0.0533346l0 -0.278929c0,-0.0294528 0.0238819,-0.0533346 0.0533346,-0.0533346zm0 0.563846l0.684441 0c0.0294528,0 0.0533346,0.0238819 0.0533346,0.0533346l0 0.278925c0,0.0294528 -0.0238819,0.0533346 -0.0533346,0.0533346l-0.684441 0c-0.0294528,0 -0.0533346,-0.0238819 -0.0533346,-0.0533346l0 -0.278925c0,-0.0294528 0.0238819,-0.0533346 0.0533346,-0.0533346z"/>
<polygon class="fil2 str0" points="4.26143,3.16409 4.26143,5.69392 4.48035,5.69392 4.48035,3.6074 4.48035,3.39362 4.48035,3.16409 "/>
<polygon class="fil2 str0" points="2.56522,5.69392 2.56522,3.16409 2.34631,3.16409 2.34631,3.39362 2.3463,3.6074 2.34631,5.69392 "/>
<path class="fil2 str0" d="M1.11245 3.55406l1.12719 0 0 -0.10711 -1.22609 0c-0.0146693,0 -0.0280512,0.00604331 -0.0377795,0.0157717 -0.00972835,0.00972835 -0.0157717,0.0231102 -0.0157717,0.0377874 0,0.0146693 0.00604331,0.0280512 0.0157717,0.0377795 0.00972835,0.00972835 0.0231102,0.0157717 0.0377795,0.0157717l0.0989016 0z"/>
<path class="fil2 str0" d="M4.58702 3.44695l0 0.10711 1.12719 0 0.0988937 0c0.0146732,0 0.0280551,-0.00604331 0.0377835,-0.0157717 0.00972835,-0.00972835 0.0157717,-0.0231102 0.0157717,-0.0377874 0,-0.0146693 -0.00604331,-0.0280512 -0.0157717,-0.0377795 -0.00972835,-0.00972835 -0.0231102,-0.0157717 -0.0377835,-0.0157717l-1.22609 0z"/>
<path class="fil2 str0" d="M2.49975 2.8293l0.880921 -0.572398c0.0174331,-0.0135 0.042185,-0.0152362 0.0617165,-0.00254331l-9.44882e-005 0.000141732 0.880933 0.572409c0.0167047,0.00901181 0.0280591,0.0266654 0.0280591,0.0469724 0,0.0294528 -0.0238819,0.0533346 -0.0533346,0.0533346l-1.76887 0 -0.000377953 0c-0.017437,-1.1811e-005 -0.0345157,-0.00856693 -0.0447205,-0.0242756 -0.0160472,-0.0246969 -0.00903543,-0.0577323 0.0156614,-0.0737795l0.000102362 0.000137795zm0.118807 0.22813l1.58954 0 0.325587 0c0.00461417,0 0.00909449,0.000586614 0.0133622,0.00168898l0.498138 0.000271654 -1.63185 -1.06033 -1.63185 1.06033 0.498134 -0.000275591c0.00426772,-0.00109843 0.00874409,-0.00168504 0.0133543,-0.00168504l0.325591 0z"/>
<polygon class="fil2 str0" points="3.41333,2.36247 2.70836,2.82054 4.1183,2.82054 "/>
<g id="_413072504">
<polygon class="fil3 str0" id="_411842608" points="3.84955,4.04292 2.97711,4.04292 2.97711,5.69392 3.84955,5.69392 "/>
<polygon class="fil3 str0" id="_411835792" points="1.41382,4.19961 1.99159,4.19961 1.99159,4.02735 1.41382,4.02735 "/>
<polygon class="fil3 str0" id="_413076656" points="1.99159,4.5912 1.41382,4.5912 1.41382,4.76346 1.99159,4.76346 "/>
<polygon class="fil3 str0" id="_413073248" points="1.99159,5.15504 1.41382,5.15504 1.41382,5.3273 1.99159,5.3273 "/>
<polygon class="fil3 str0" id="_413076032" points="4.83506,4.02735 4.83506,4.19961 5.41283,4.19961 5.41283,4.02735 "/>
<polygon class="fil3 str0" id="_413078936" points="5.41283,4.5912 4.83506,4.5912 4.83506,4.76346 5.41283,4.76346 "/>
<polygon class="fil3 str0" id="_413073848" points="5.41283,5.15504 4.83506,5.15504 4.83506,5.3273 5.41283,5.3273 "/>
<polygon class="fil3 str0" id="_413072048" points="3.84955,3.38537 2.97711,3.38537 2.97711,3.60826 3.84955,3.60826 "/>
</g>
</g>
<rect class="fil4" height="6.82666" width="6.82666"/>
</svg>